<svg class="svg-icon" style="width: 1.25em; height: 1em;vertical-align: middle;fill: currentColor;overflow: hidden;" viewBox="0 0 1280 1024" version="1.1" xmlns="http://www.w3.org/2000/svg"><path d="M286.507724 441.630521l-24.839551 92.738325c-6.019891 22.499594-7.259869 45.779173-4.819913 68.778757l-70.398728 57.958953c-13.139763 10.819805-32.619411-0.859984-29.239472-17.539683l30.879442-153.357229c2.119962-10.51981-5.319904-20.559629-15.999711-21.57961l-155.717187-15.099728c-16.939694-1.63997-22.459594-23.659573-8.27985-33.079402l130.297646-86.598436c8.919839-5.939893 10.759806-18.299669 3.959928-26.579519L42.932125 186.455131c-10.819805-13.139763 0.859984-32.599411 17.559682-29.239471l153.35723 30.879442c10.51981 2.119962 20.559629-5.319904 21.59961-15.999711l15.099727-155.717187c1.63997-16.959694 23.659573-22.459594 33.099402-8.27985l86.598435 130.277646c5.939893 8.919839 18.299669 10.759806 26.57952 3.959929l120.797818-99.418204c13.139763-10.819805 32.599411 0.859984 29.239471 17.539683L524.20343 172.775379c-5.419902 6.09989-10.859804 12.17978-15.819714 18.79966l-64.298839 85.938447-21.419613 28.639483c-65.458817 17.519683-118.357862 69.058752-136.15754 135.477552z m989.12213 265.015212l-24.839551 92.718325c-6.259887 23.359578-18.759661 43.219219-35.099366 58.71894a133.749584 133.749584 0 0 1-17.519683 13.999747l-27.979495 104.458112c-2.279959 8.539846-6.199888 16.199707-11.299796 22.759589-15.339723 19.679644-41.479251 29.35947-67.078788 22.499594L1029.994292 1005.240339c-34.139383-9.139835-54.399017-44.239201-45.259182-78.378584l16.5597-61.818883-494.551065-132.517606-16.559701 61.818883c-9.139835 34.139383-44.239201 54.399017-78.378584 45.259182l-61.818883-16.5597c-25.599538-6.859876-43.399216-28.319488-46.839154-53.019043-1.139979-8.239851-0.699987-16.839696 1.579972-25.359541l27.979494-104.458113a133.237593 133.237593 0 0 1-8.179852-20.899623c-6.399884-21.57961-7.299868-45.039186-1.039981-68.398764l24.839551-92.738324c10.619808-39.599285 38.7193-69.658742 73.778667-84.418475a128.669675 128.669675 0 0 1 36.979332-9.43983l36.259345-48.459124 64.298838-85.938448c6.899875-9.219833 14.37974-17.799678 22.399596-25.679536 15.999711-15.779715 34.059385-28.879478 53.479034-39.019295 9.719824-5.079908 19.779643-9.41983 30.099456-12.979765 20.659627-7.159871 42.379234-11.259797 64.478835-12.079782 22.099601-0.819985 44.619194 1.63997 66.858792 7.599863l245.355567 65.738812c22.239598 5.959892 42.959224 15.079728 61.698886 26.859515a222.215985 222.215985 0 0 1 69.378746 68.998753c17.639681 27.759498 29.279471 59.678922 33.359398 93.978302l12.71977 106.578075 7.17987 60.098914a128.97767 128.97767 0 0 1 45.479178 59.858919c8.779841 23.759571 10.579809 50.37909 3.499937 76.778612zM511.163665 468.690032c-37.09933-9.93982-68.418764 8.079854-78.338584 45.059186-9.919821 36.979332 8.219851 68.238767 45.299181 78.178588 37.09933 9.93982 91.078355 31.01944 100.978176-5.959892 9.919821-36.979332-30.859442-107.338061-67.938773-117.277882z m581.2095 56.338983l-12.71977-106.578075c-1.159979-9.739824-3.779932-19.059656-7.639862-27.719499-11.59979-25.979531-34.399379-46.019169-62.838865-53.639031l-245.355567-65.738812a96.014265 96.014265 0 0 0-101.718163 35.219363l-64.298838 85.938448 343.993785 92.158335 150.57728 40.359271z m36.979332 109.298025c-37.09933-9.93982-107.598056 30.619447-117.497877 67.578779-9.899821 36.979332 47.379144 45.719174 84.478473 55.658995 37.09933 9.93982 68.418764-8.079854 78.338585-45.059186 9.899821-36.959332-8.219851-68.238767-45.319181-78.178588z" fill="" /></svg>