<svg class="svg-icon" style="width: 1em; height: 1em;vertical-align: middle;fill: currentColor;overflow: hidden;" viewBox="0 0 1024 1024" version="1.1" xmlns="http://www.w3.org/2000/svg"><path d="M170.666667 199.111111m-56.888889 0a56.888889 56.888889 0 1 0 113.777778 0 56.888889 56.888889 0 1 0-113.777778 0Z" fill="" /><path d="M540.444444 227.555556m-56.888888 0a56.888889 56.888889 0 1 0 113.777777 0 56.888889 56.888889 0 1 0-113.777777 0Z" fill="" /><path d="M881.777778 440.888889m-42.666667 0a42.666667 42.666667 0 1 0 85.333333 0 42.666667 42.666667 0 1 0-85.333333 0Z" fill="" /><path d="M227.555556 284.444444H113.777778c-48.355556 0-85.333333 36.977778-85.333334 85.333334v170.666666h56.888889v341.333334h56.888889v-256h56.888889v256h56.888889V540.444444h56.888889v-170.666666c0-48.355556-36.977778-85.333333-85.333333-85.333334zM682.666667 682.666667l-56.888889-298.666667c-5.688889-39.822222-42.666667-71.111111-85.333334-71.111111s-76.8 31.288889-85.333333 71.111111L398.222222 682.666667h56.888889v199.111111h56.888889v-199.111111h56.888889v199.111111h56.888889v-199.111111h56.888889zM910.222222 512h-56.888889c-48.355556 0-85.333333 36.977778-85.333333 85.333333v85.333334h56.888889v199.111111h113.777778v-199.111111h56.888889v-85.333334c0-48.355556-36.977778-85.333333-85.333334-85.333333z" fill="" /></svg>