<?xml version="1.0" encoding="utf-8"?>
<!-- Uploaded to: SVG Repo, www.svgrepo.com, Generator: SVG Repo Mixer Tools -->
<svg fill="#000000" width="800px" height="800px" viewBox="0 0 32 32" version="1.1" xmlns="http://www.w3.org/2000/svg">
<title>ruler-triangle</title>
<path d="M30.531 29.469l-28.001-27.999c-0.136-0.136-0.323-0.22-0.531-0.22-0.414 0-0.75 0.336-0.75 0.75 0 0 0 0 0 0.001v-0 28c0 0.414 0.336 0.75 0.75 0.75h28c0.415-0 0.751-0.336 0.751-0.751 0-0.207-0.084-0.395-0.22-0.53v0zM2.75 29.25v-25.439l4.197 4.197-1.485 1.531c-0.135 0.136-0.218 0.323-0.218 0.529 0 0.414 0.336 0.75 0.75 0.75 0.214 0 0.407-0.090 0.544-0.234l0-0 1.47-1.515 3.931 3.931-1.47 1.47c-0.14 0.136-0.227 0.327-0.227 0.538 0 0.414 0.336 0.75 0.75 0.75 0.211 0 0.401-0.087 0.537-0.227l1.47-1.47 3.939 3.939-1.47 1.469c-0.135 0.136-0.218 0.323-0.218 0.529 0 0.415 0.336 0.751 0.751 0.751 0.206 0 0.393-0.083 0.528-0.218l1.471-1.47 3.938 3.938-1.47 1.47c-0.136 0.136-0.22 0.324-0.22 0.531 0 0.415 0.336 0.751 0.751 0.751 0.207 0 0.395-0.084 0.531-0.22l1.47-1.47 5.188 5.188zM6.53 16.47c-0.136-0.136-0.323-0.22-0.531-0.22-0.414 0-0.75 0.336-0.75 0.75 0 0 0 0 0 0.001v-0 9c0 0.414 0.336 0.75 0.75 0.75h9c0 0 0 0 0 0 0.414 0 0.75-0.336 0.75-0.75 0-0.207-0.084-0.395-0.22-0.531v0zM6.75 25.25v-6.439l6.439 6.439z"></path>
</svg>